<svg version="1.1" id="Layer_1" xmlns="http://www.w3.org/2000/svg" xmlns:xlink="http://www.w3.org/1999/xlink" x="0px" y="0px"
	 width="100%" viewBox="0 0 224 224" enable-background="new 0 0 224 224" xml:space="preserve">
<path fill="#000000" opacity="1.000000" stroke="none" 
	d="
M151.725800,37.167564 
	C179.460220,52.010693 195.104401,74.589981 198.394684,105.677284 
	C203.108505,150.214767 170.972656,190.420044 127.184433,197.919800 
	C82.052933,205.649597 37.343086,173.860931 29.452177,128.608765 
	C20.982426,80.037094 54.690193,35.612831 100.938362,29.034937 
	C118.588249,26.524582 135.389374,29.180494 151.725800,37.167564 
M81.937927,187.527496 
	C99.917664,195.468781 118.373108,196.088379 137.043167,190.625824 
	C175.660568,179.326996 200.246002,138.935013 192.838959,99.468925 
	C188.843903,78.182472 178.201187,61.130142 160.791367,48.298069 
	C131.013916,26.350307 88.189194,27.216608 59.087765,54.033043 
	C40.378387,71.273392 31.157692,93.186531 33.301186,118.919647 
	C35.962025,150.863556 52.381065,173.490540 81.937927,187.527496 
z"/>
<path fill="#000000" opacity="1.000000" stroke="none" 
	d="
M8.160425,211.684509 
	C8.180264,215.548859 8.756569,219.031281 7.413607,222.371414 
	C5.812534,222.998337 4.338962,222.506256 4.433027,220.967667 
	C4.890213,213.489609 3.392966,205.958832 5.179764,198.489166 
	C5.469725,197.276993 5.039592,196.273300 6.699373,196.416016 
	C8.210870,196.545959 8.416718,197.550781 8.369559,198.889587 
	C8.224483,203.008163 8.198086,207.130905 8.160425,211.684509 
z"/>
<path fill="#000000" opacity="1.000000" stroke="none" 
	d="
M8.215542,191.569580 
	C7.884739,193.278046 7.804142,194.701355 5.997329,194.950287 
	C3.914965,194.084900 3.947827,192.155563 3.931743,190.393890 
	C3.889475,185.764099 3.954315,181.132614 4.034280,176.502823 
	C4.059552,175.039642 3.979754,173.165848 5.997872,173.097229 
	C8.425183,173.014679 8.228330,175.136765 8.248641,176.723236 
	C8.310065,181.521072 8.252650,186.320435 8.215542,191.569580 
z"/>
<path fill="#000000" opacity="1.000000" stroke="none" 
	d="
M126.361664,101.636086 
	C130.150909,101.669266 133.482285,101.671738 136.812805,101.726837 
	C138.399307,101.753082 139.904572,102.104851 140.104813,104.030487 
	C140.289383,105.805542 140.909073,108.236534 138.714127,108.828728 
	C135.082443,109.808540 135.289322,112.328629 135.316742,115.034836 
	C135.340363,117.366226 135.271759,119.698463 135.285660,122.030075 
	C135.299545,124.354851 134.122391,125.288605 131.866577,125.267220 
	C129.683060,125.246506 127.783607,124.990639 127.738716,122.191933 
	C127.690628,119.194374 127.685936,116.196075 127.630096,113.198700 
	C127.598885,111.523781 127.703758,109.550079 125.359520,109.475906 
	C122.759659,109.393639 122.759315,111.545799 122.586540,113.374794 
	C122.540367,113.863602 122.687515,114.367500 122.702995,114.865799 
	C122.840248,119.285271 122.103195,123.256058 117.255508,124.971054 
	C112.372612,126.698502 107.780602,125.212425 104.519043,120.904343 
	C104.145752,120.411278 103.778671,119.913506 103.386154,119.387703 
	C95.618370,127.402138 90.208115,127.617844 81.586281,120.183594 
	C79.162651,124.863022 74.999687,125.772461 70.219734,125.337334 
	C64.526619,124.819077 58.291584,127.344681 53.492325,121.833923 
	C52.477814,120.669022 50.051777,121.214058 49.070000,122.792007 
	C46.842739,126.371788 43.776325,125.310242 40.409382,124.915215 
	C40.064678,120.331261 43.005161,116.976509 44.036720,113.081429 
	C44.796837,110.211304 46.296085,107.541832 47.394630,104.754829 
	C48.232925,102.628082 49.698616,101.746964 51.994736,101.678391 
	C54.410393,101.606247 55.642548,102.748253 56.473747,104.823997 
	C58.510658,109.910736 60.627495,114.965469 63.828163,119.985664 
	C63.828163,116.192513 63.677597,112.391335 63.879341,108.608948 
	C64.021698,105.940079 62.372387,102.296387 67.262367,101.719627 
	C74.243996,100.896172 78.229591,102.621742 79.406303,107.392082 
	C79.717491,108.653641 79.766571,109.979858 80.014153,111.874466 
	C81.601067,106.984833 84.180504,103.380020 88.941277,102.034042 
	C93.842918,100.648201 98.091888,102.223877 101.579102,105.235878 
	C103.252090,105.220619 103.418770,104.120049 103.918121,103.280609 
	C105.233116,101.070007 107.389328,101.654526 109.293610,101.943710 
	C111.560143,102.287903 111.171265,104.262352 111.389236,105.885445 
	C111.889359,109.609451 110.132889,113.706841 112.977699,117.372574 
	C115.458801,115.809982 114.701233,113.623032 114.745087,111.810120 
	C115.000633,101.245049 112.815445,101.381142 125.403915,101.618248 
	C125.570427,101.621384 125.736931,101.624084 126.361664,101.636086 
M90.008995,116.621780 
	C92.511269,118.574417 94.346062,117.644356 95.401970,115.078926 
	C96.112999,113.351395 95.897400,111.485306 94.240089,110.188782 
	C93.117821,109.310806 91.751907,109.051163 90.583672,109.908043 
	C88.301796,111.581749 88.608223,113.801628 90.008995,116.621780 
z"/>
<path fill="#000000" opacity="1.000000" stroke="none" 
	d="
M148.381256,124.371895 
	C147.040192,117.844933 148.999054,111.827484 149.159241,105.705559 
	C149.202881,104.037880 149.463348,101.887680 152.057602,101.762138 
	C154.415298,101.648041 156.732086,101.394463 157.869217,104.285332 
	C158.386444,105.600296 158.714935,107.209641 160.999512,108.046944 
	C162.619812,97.141792 171.318192,102.516739 176.757629,102.022209 
	C189.146561,100.895882 187.283371,100.623108 187.350815,111.698921 
	C187.433609,125.294304 187.405334,125.394325 173.859406,125.269981 
	C170.642212,125.240456 166.762833,126.922043 164.446411,122.806259 
	C161.885239,125.912384 159.278427,126.400017 156.458832,122.766243 
	C154.387390,125.853577 151.622833,125.780914 148.381256,124.371895 
z"/>
<path fill="#000000" opacity="1.000000" stroke="none" 
	d="
M115.865341,59.686043 
	C132.905487,60.921333 146.499023,67.583603 156.881058,81.348251 
	C153.341583,83.192978 152.078003,80.873291 150.569138,79.315468 
	C137.075363,65.383842 120.757156,60.435711 101.896606,64.533722 
	C91.918518,66.701759 83.385483,71.795227 76.410774,79.360992 
	C75.026917,80.862129 73.966866,83.178200 71.194641,81.846680 
	C74.108940,70.638130 96.119942,59.624702 115.865341,59.686043 
z"/>
<path fill="#000000" opacity="1.000000" stroke="none" 
	d="
M155.356476,147.546722 
	C129.632721,177.999115 86.338722,170.117004 70.661499,145.419830 
	C73.809875,143.743973 75.171974,146.329453 76.741722,147.944382 
	C90.146088,161.734558 106.374107,166.526749 125.016106,162.575790 
	C134.276108,160.613220 142.410873,156.077057 149.016907,149.096207 
	C150.272995,147.768845 151.388794,146.141571 152.923706,145.295990 
	C154.247620,144.566681 157.117371,143.406845 155.356476,147.546722 
z"/>
<path fill="#000000" opacity="1.000000" stroke="none" 
	d="
M167.975037,78.754692 
	C170.871384,78.148239 173.439896,73.746284 176.122437,78.504951 
	C179.013916,83.634239 178.744339,84.206696 171.246292,87.412018 
	C170.619217,84.347435 166.954208,82.704887 167.975037,78.754692 
z"/>
<path fill="#000000" opacity="1.000000" stroke="none" 
	d="
M59.598846,147.131500 
	C58.348801,148.222565 57.085655,148.960587 55.843815,149.732864 
	C51.390713,152.502228 51.254883,147.755371 49.657513,145.978546 
	C47.469074,143.544235 50.106594,142.639526 51.652390,141.608063 
	C52.857021,140.804245 54.177734,140.174377 55.674191,139.340546 
	C57.058247,141.971344 58.326885,144.382751 59.598846,147.131500 
z"/>
<path fill="#000000" opacity="1.000000" stroke="none" 
	d="
M86.082680,47.299141 
	C90.635338,44.609371 92.002289,45.644810 93.755173,53.058323 
	C90.716553,52.789722 88.961021,55.727558 85.447716,56.139030 
	C85.398094,53.089470 80.021553,50.440956 86.082680,47.299141 
z"/>
<path fill="#000000" opacity="1.000000" stroke="none" 
	d="
M147.934265,59.991291 
	C143.005081,58.060829 141.787476,55.037712 144.581146,52.465096 
	C145.982697,51.174442 147.684906,50.564182 149.586060,51.370098 
	C151.210312,52.058647 152.374069,53.198883 152.351700,55.084858 
	C152.319977,57.756382 150.862595,59.336792 147.934265,59.991291 
z"/>
<path fill="#000000" opacity="1.000000" stroke="none" 
	d="
M134.435944,177.658203 
	C133.775253,175.645386 131.921402,173.656479 136.023224,173.628784 
	C137.532089,173.618591 139.064697,171.428802 141.313690,171.003586 
	C142.828171,173.394791 143.718292,175.911774 143.673920,179.526474 
	C140.626190,177.218506 136.883240,185.281738 134.435944,177.658203 
z"/>
<path fill="#000000" opacity="1.000000" stroke="none" 
	d="
M63.001328,70.071014 
	C64.689651,73.093719 63.891663,75.252678 61.380749,76.667130 
	C59.098083,77.953003 57.157906,76.653336 55.686665,75.037430 
	C54.133213,73.331223 54.384953,71.208572 55.886208,69.645020 
	C58.077328,67.362968 60.518337,67.408791 63.001328,70.071014 
z"/>
<path fill="#000000" opacity="1.000000" stroke="none" 
	d="
M163.207550,154.077820 
	C163.952805,151.009750 165.850418,149.843658 168.456177,150.190765 
	C170.643402,150.482101 171.982971,152.081696 172.273727,154.242874 
	C172.549744,156.294235 171.417587,157.934082 169.604477,158.587372 
	C165.858444,159.937088 164.076462,157.769135 163.207550,154.077820 
z"/>
<path fill="#000000" opacity="1.000000" stroke="none" 
	d="
M75.253426,169.616089 
	C77.039742,167.141449 79.041710,166.501984 81.474777,167.694366 
	C83.374535,168.625397 83.870186,170.356354 83.578949,172.245941 
	C83.271767,174.239044 81.825966,175.601974 79.943192,175.759369 
	C75.833542,176.102890 74.331062,173.882950 75.253426,169.616089 
z"/>
<path fill="#000000" opacity="1.000000" stroke="none" 
	d="
M158.824310,65.212860 
	C156.031326,66.966431 153.992889,66.283829 152.873978,63.742874 
	C151.592468,60.832642 153.799713,58.986053 155.709229,57.544857 
	C158.028702,55.794228 159.370911,58.499554 160.567932,59.604805 
	C163.000916,61.851273 159.927872,63.228313 158.824310,65.212860 
z"/>
<path fill="#000000" opacity="1.000000" stroke="none" 
	d="
M62.596924,65.686050 
	C60.117638,61.407089 65.576996,62.178356 65.477829,59.731922 
	C67.584244,59.745132 68.556877,60.893814 69.533524,62.006115 
	C71.108002,63.799282 71.776352,65.689278 69.893074,67.690933 
	C68.129333,69.565544 66.382095,68.979233 64.683716,67.558739 
	C64.052261,67.030602 63.439804,66.479759 62.596924,65.686050 
z"/>
<path fill="#000000" opacity="1.000000" stroke="none" 
	d="
M158.084503,165.641479 
	C155.702240,163.167053 154.737274,160.435577 157.959213,158.901138 
	C162.394302,156.788956 163.659119,160.820007 165.448669,164.103180 
	C162.032486,161.573761 162.254074,170.475479 158.084503,165.641479 
z"/>
<path fill="#000000" opacity="1.000000" stroke="none" 
	d="
M72.342308,161.232651 
	C76.557716,165.490768 73.090775,167.645065 70.474571,170.247482 
	C68.321594,169.592590 67.943741,166.693451 65.172569,167.097778 
	C66.401825,163.261597 67.769798,160.502106 72.342308,161.232651 
z"/>
<path fill="#000000" opacity="1.000000" stroke="none" 
	d="
M49.867977,79.153709 
	C52.452934,76.856812 54.704731,77.803055 56.785786,79.313255 
	C58.621288,80.645248 58.298840,82.379593 57.256298,84.110619 
	C56.193710,85.874931 54.696621,86.300354 53.157288,85.006538 
	C51.444244,83.566727 47.467312,83.377563 49.867977,79.153709 
z"/>
<path fill="#000000" opacity="1.000000" stroke="none" 
	d="
M141.331512,50.725277 
	C141.209625,52.970871 141.041351,54.885090 138.687607,55.272186 
	C137.113129,55.531128 135.327057,54.906223 134.724854,53.667061 
	C133.208145,50.546131 136.175232,48.615295 137.151611,45.991783 
	C139.920212,46.364841 141.793427,47.251347 141.331512,50.725277 
z"/>
<path fill="#000000" opacity="1.000000" stroke="none" 
	d="
M86.671860,172.581924 
	C89.249176,171.248840 91.702873,171.532486 92.305634,173.949905 
	C92.899750,176.332687 91.659286,179.229813 89.516190,180.440536 
	C87.605614,181.519882 85.505653,180.133118 85.381409,177.678055 
	C85.301369,176.096497 86.031883,174.473907 86.671860,172.581924 
z"/>
<path fill="#000000" opacity="1.000000" stroke="none" 
	d="
M47.264771,92.627853 
	C46.170650,91.256897 44.449219,90.411423 45.457684,88.609123 
	C46.273487,87.151154 47.806904,87.639748 49.087635,87.672722 
	C50.719528,87.714737 52.421207,87.246376 54.219334,88.323326 
	C53.908199,90.607956 51.574753,92.385056 52.490326,94.924637 
	C49.897011,95.744522 48.919712,93.830666 47.264771,92.627853 
z"/>
<path fill="#000000" opacity="1.000000" stroke="none" 
	d="
M174.963409,142.902466 
	C176.709244,144.123978 179.193970,144.590714 177.535721,147.394928 
	C175.649506,150.584686 173.229797,148.755859 171.072708,148.105865 
	C168.930634,147.460388 168.609543,145.878799 169.479919,143.803726 
	C170.763168,140.744324 172.680954,141.840500 174.963409,142.902466 
z"/>
<path fill="#000000" opacity="1.000000" stroke="none" 
	d="
M178.739365,139.305588 
	C176.582809,139.319244 174.824875,139.319244 172.688904,139.319244 
	C173.234192,136.290115 175.209229,134.421600 174.577927,131.591034 
	C178.337357,132.113495 180.299515,134.242599 181.447021,136.954498 
	C182.125549,138.558029 180.595947,139.165970 178.739365,139.305588 
z"/>
<path fill="#000000" opacity="1.000000" stroke="none" 
	d="
M128.962097,51.651810 
	C127.431076,50.245689 125.773491,51.982117 124.431747,50.920692 
	C123.654892,49.646488 124.500412,48.615040 125.225334,47.840927 
	C126.689468,46.277466 127.287567,42.509472 130.081223,43.931023 
	C132.707535,45.267422 131.829773,48.935387 131.875275,51.547134 
	C131.904617,53.231216 130.223526,52.460445 128.962097,51.651810 
z"/>
<path fill="#000000" opacity="1.000000" stroke="none" 
	d="
M97.843582,52.114883 
	C96.289352,51.554020 95.824448,50.515167 95.657196,49.343639 
	C95.348679,47.182690 92.972679,44.566978 96.906532,43.270454 
	C98.553825,42.727535 100.117111,42.914761 100.177429,44.904869 
	C100.254433,47.445896 103.837997,51.134045 97.843582,52.114883 
z"/>
<path fill="#000000" opacity="1.000000" stroke="none" 
	d="
M131.417923,177.633652 
	C132.641663,181.563660 132.474472,184.210175 127.552895,183.749695 
	C125.914024,181.443176 126.407516,178.708603 125.535835,176.136520 
	C128.019867,174.723190 130.162964,173.546432 131.417923,177.633652 
z"/>
<path fill="#000000" opacity="1.000000" stroke="none" 
	d="
M100.345795,175.763107 
	C101.982002,175.686462 103.341270,175.900055 102.514404,177.594284 
	C101.448395,179.778488 100.486954,182.330780 97.770493,182.968765 
	C96.310547,183.311646 95.842026,181.910751 95.719994,180.709091 
	C95.524796,178.786987 94.313789,176.911194 95.333885,174.919342 
	C97.197144,173.832352 98.348633,176.176147 100.345795,175.763107 
z"/>
<path fill="#000000" opacity="1.000000" stroke="none" 
	d="
M50.282478,133.181824 
	C54.425980,131.322830 54.792549,134.378143 54.018394,136.381927 
	C53.115585,138.718689 50.173466,139.502579 47.736195,139.419205 
	C45.250359,139.334152 45.590412,137.031052 45.553177,135.043411 
	C47.032990,134.459167 48.524708,133.870239 50.282478,133.181824 
z"/>
<path fill="#000000" opacity="1.000000" stroke="none" 
	d="
M175.160233,94.540924 
	C172.814987,93.781639 171.974899,91.846878 172.971146,90.269058 
	C174.241837,88.256599 176.971909,87.928131 179.202118,87.749550 
	C181.568970,87.560028 181.163116,89.895386 181.734009,91.637871 
	C179.551254,92.616051 177.496887,93.536705 175.160233,94.540924 
z"/>
<path fill="#000000" opacity="1.000000" stroke="none" 
	d="
M167.309937,65.827629 
	C167.442444,71.082253 162.783142,69.773666 160.063690,72.969658 
	C161.005081,66.240211 163.899719,63.732975 167.309937,65.827629 
z"/>
<path fill="#000000" opacity="1.000000" stroke="none" 
	d="
M73.765533,60.691349 
	C72.235016,59.490463 70.914612,58.547813 69.407249,57.471684 
	C69.748787,54.833500 71.879036,54.464188 74.101578,53.766811 
	C75.033913,55.818245 76.269310,57.650398 76.679565,59.651699 
	C77.261269,62.489403 75.801338,62.409798 73.765533,60.691349 
z"/>
<path fill="#000000" opacity="1.000000" stroke="none" 
	d="
M65.100647,159.569031 
	C64.157845,161.012421 63.424133,162.218674 62.702343,163.405319 
	C60.238907,162.698318 59.236908,161.193802 58.939899,158.836304 
	C61.338360,157.652878 63.714478,156.480453 66.033691,155.336121 
	C67.844009,157.378937 66.096535,158.231049 65.100647,159.569031 
z"/>
<path fill="#000000" opacity="1.000000" stroke="none" 
	d="
M153.056793,173.210632 
	C152.442307,170.343536 149.619339,168.106216 150.475906,164.654205 
	C153.962189,165.224487 154.197479,169.269455 157.398804,169.189545 
	C156.730453,171.951843 155.105576,172.668365 153.056793,173.210632 
z"/>
</svg>